<svg xmlns="http://www.w3.org/2000/svg" viewBox="0 0 1024 1024" role="img" aria-label="FillPro icon">
  <defs>
    <linearGradient id="tile" x1="176" y1="128" x2="840" y2="896" gradientUnits="userSpaceOnUse">
      <stop offset="0" stop-color="#17c7b3"/>
      <stop offset="0.45" stop-color="#0f766e"/>
      <stop offset="1" stop-color="#10231f"/>
    </linearGradient>
    <linearGradient id="fillLine" x1="300" y1="630" x2="662" y2="730" gradientUnits="userSpaceOnUse">
      <stop offset="0" stop-color="#f2c14e"/>
      <stop offset="1" stop-color="#14b8a6"/>
    </linearGradient>
    <filter id="softShadow" x="92" y="96" width="840" height="850" filterUnits="userSpaceOnUse" color-interpolation-filters="sRGB">
      <feDropShadow dx="0" dy="32" stdDeviation="38" flood-color="#061d1a" flood-opacity="0.32"/>
    </filter>
  </defs>

  <rect width="1024" height="1024" fill="none"/>
  <g filter="url(#softShadow)">
    <rect x="128" y="128" width="768" height="768" rx="188" fill="url(#tile)"/>
    <path d="M128 668c104 76 234 120 379 120 151 0 287-49 389-132v52c0 104-84 188-188 188H316c-104 0-188-84-188-188v-40Z" fill="#061d1a" opacity="0.22"/>
  </g>

  <g fill="#f7fffb">
    <rect x="292" y="276" width="118" height="470" rx="59"/>
    <rect x="292" y="276" width="436" height="118" rx="59"/>
    <rect x="292" y="456" width="338" height="108" rx="54"/>
  </g>
  <rect x="292" y="636" width="276" height="104" rx="52" fill="url(#fillLine)"/>
  <path d="M669 650l47 47 92-110" fill="none" stroke="#f7fffb" stroke-width="54" stroke-linecap="round" stroke-linejoin="round"/>
  <circle cx="716" cy="697" r="136" fill="none" stroke="#f7fffb" stroke-width="36" opacity="0.96"/>
</svg>
